<?xml version="1.0" encoding="UTF-8" standalone="no"?>
<!-- Created with Inkscape (http://www.inkscape.org/) -->

<svg
   xmlns:dc="http://purl.org/dc/elements/1.1/"
   xmlns:cc="http://creativecommons.org/ns#"
   xmlns:rdf="http://www.w3.org/1999/02/22-rdf-syntax-ns#"
   xmlns:svg="http://www.w3.org/2000/svg"
   xmlns="http://www.w3.org/2000/svg"
   xmlns:sodipodi="http://sodipodi.sourceforge.net/DTD/sodipodi-0.dtd"
   xmlns:inkscape="http://www.inkscape.org/namespaces/inkscape"
   width="744.09448819"
   height="1052.3622047"
   id="svg2"
   version="1.1"
   inkscape:version="0.48.2 r9819"
   sodipodi:docname="level1.3.svg">
  <defs
     id="defs4">
    <inkscape:path-effect
       effect="skeletal"
       id="path-effect3790"
       is_visible="true"
       pattern="M 0,5 C 0,2.24 2.24,0 5,0 7.76,0 10,2.24 10,5 10,7.76 7.76,10 5,10 2.24,10 0,7.76 0,5 z"
       copytype="single_stretched"
       prop_scale="1"
       scale_y_rel="false"
       spacing="0"
       normal_offset="0"
       tang_offset="0"
       prop_units="false"
       vertical_pattern="false"
       fuse_tolerance="0" />
    <inkscape:path-effect
       effect="skeletal"
       id="path-effect3786"
       is_visible="true"
       pattern="M 0,5 C 0,2.24 2.24,0 5,0 7.76,0 10,2.24 10,5 10,7.76 7.76,10 5,10 2.24,10 0,7.76 0,5 z"
       copytype="single_stretched"
       prop_scale="1"
       scale_y_rel="false"
       spacing="0"
       normal_offset="0"
       tang_offset="0"
       prop_units="false"
       vertical_pattern="false"
       fuse_tolerance="0" />
    <inkscape:path-effect
       effect="skeletal"
       id="path-effect3782"
       is_visible="true"
       pattern="M 0,5 C 0,2.24 2.24,0 5,0 7.76,0 10,2.24 10,5 10,7.76 7.76,10 5,10 2.24,10 0,7.76 0,5 z"
       copytype="single_stretched"
       prop_scale="1"
       scale_y_rel="false"
       spacing="0"
       normal_offset="0"
       tang_offset="0"
       prop_units="false"
       vertical_pattern="false"
       fuse_tolerance="0" />
    <inkscape:path-effect
       effect="skeletal"
       id="path-effect3778"
       is_visible="true"
       pattern="M 0,5 C 0,2.24 2.24,0 5,0 7.76,0 10,2.24 10,5 10,7.76 7.76,10 5,10 2.24,10 0,7.76 0,5 z"
       copytype="single_stretched"
       prop_scale="1"
       scale_y_rel="false"
       spacing="0"
       normal_offset="0"
       tang_offset="0"
       prop_units="false"
       vertical_pattern="false"
       fuse_tolerance="0" />
    <inkscape:path-effect
       effect="skeletal"
       id="path-effect3762"
       is_visible="true"
       pattern="M 0,5 C 0,2.24 2.24,0 5,0 7.76,0 10,2.24 10,5 10,7.76 7.76,10 5,10 2.24,10 0,7.76 0,5 z"
       copytype="single_stretched"
       prop_scale="1"
       scale_y_rel="false"
       spacing="0"
       normal_offset="0"
       tang_offset="0"
       prop_units="false"
       vertical_pattern="false"
       fuse_tolerance="0" />
  </defs>
  <sodipodi:namedview
     id="base"
     pagecolor="#ffffff"
     bordercolor="#666666"
     borderopacity="1.0"
     inkscape:pageopacity="0.0"
     inkscape:pageshadow="2"
     inkscape:zoom="0.5"
     inkscape:cx="-553.60896"
     inkscape:cy="639.90923"
     inkscape:document-units="px"
     inkscape:current-layer="layer1"
     showgrid="false"
     inkscape:window-width="1203"
     inkscape:window-height="876"
     inkscape:window-x="1600"
     inkscape:window-y="4"
     inkscape:window-maximized="1" />
  <metadata
     id="metadata7">
    <rdf:RDF>
      <cc:Work
         rdf:about="">
        <dc:format>image/svg+xml</dc:format>
        <dc:type
           rdf:resource="http://purl.org/dc/dcmitype/StillImage" />
        <dc:title />
      </cc:Work>
    </rdf:RDF>
  </metadata>
  <g
     inkscape:label="Layer 1"
     inkscape:groupmode="layer"
     id="layer1">
    <path
       inkscape:connector-curvature="0"
       style="opacity:0.1;fill:#ffff00;stroke:none"
       d="m -1384,-215.63782 1280.0001,0 0,1280.00002 -1280.0001,0 z"
       id="board" />
    <path
       style="fill:#4d4d4d;fill-opacity:1;stroke:none"
       d="m -104,637.36218 -1280,0 0,427.00002 1280.0001,0 z"
       id="path3370"
       inkscape:connector-curvature="0"
       sodipodi:nodetypes="ccccc"
       inkscape:export-filename="K:\temp_workspace\microm\microm\data\textures\txr_3_3_board.png"
       inkscape:export-xdpi="90"
       inkscape:export-ydpi="90" />
    <path
       style="fill:#999999;fill-opacity:1;stroke:none"
       d="m -104,211.36218 -1280,0 0,426 1280.0001,0 0,-426 z"
       id="path3368"
       inkscape:connector-curvature="0"
       inkscape:export-filename="K:\temp_workspace\microm\microm\data\textures\txr_2_3_board.png"
       inkscape:export-xdpi="90"
       inkscape:export-ydpi="90" />
    <path
       style="fill:#4d4d4d;fill-opacity:1;stroke:none"
       d="m -1384,-215.63781 0,426.99999 1280.0001,0 0,-426.99999 -1280.0001,0 z"
       id="rect2997"
       inkscape:connector-curvature="0"
       inkscape:export-filename="K:\temp_workspace\microm\microm\data\textures\txr_1_3_board.png"
       inkscape:export-xdpi="90"
       inkscape:export-ydpi="90" />
    <text
       xml:space="preserve"
       style="font-size:56px;font-style:normal;font-variant:normal;font-weight:normal;font-stretch:normal;text-align:start;line-height:125%;letter-spacing:0px;word-spacing:0px;text-anchor:start;fill:#f2f2f2;fill-opacity:1;stroke:none;font-family:'8BIT WONDER';-inkscape-font-specification:'8BIT WONDER'"
       x="-1359.3301"
       y="-139.55145"
       id="text2989"
       sodipodi:linespacing="125%"><tspan
         sodipodi:role="line"
         id="tspan2991"
         x="-1359.3301"
         y="-139.55145">Some dots are needed</tspan></text>
    <path
       style="fill:#008080;fill-opacity:1;stroke:none"
       d="m -1308.1473,135.29792 51,0 0,51 -51,0 z"
       id="daBox"
       inkscape:connector-curvature="0"
       inkscape:export-filename="K:\temp_workspace\microm\microm\data\textures\daBox.png"
       inkscape:export-xdpi="90"
       inkscape:export-ydpi="90" />
    <path
       sodipodi:nodetypes="cccc"
       inkscape:connector-curvature="0"
       id="goal"
       d="m -128.7159,1053.3622 24.716,-35 -24.716,-35.00002 z"
       style="fill:#000000;fill-opacity:1;stroke:none" />
    <path
       style="fill:#00ff00;fill-opacity:1;stroke:none"
       d="m -1384.0001,129.36218 24.716,35 -24.716,35 z"
       id="spawn"
       inkscape:connector-curvature="0"
       sodipodi:nodetypes="cccc" />
    <path
       sodipodi:nodetypes="ccccc"
       inkscape:connector-curvature="0"
       id="ground_1"
       d="m -104,211.36217 0,-3.56422 -644.24257,0 -635.75743,0 0,3.56423"
       style="fill:#d40000;stroke:none" />
    <path
       style="fill:#d40000;stroke:none"
       d="m -104,639.86218 0,-3.56423 -639.99993,0 -640.00007,0 0,3.56423"
       id="ground_2"
       inkscape:connector-curvature="0"
       sodipodi:nodetypes="ccccc" />
    <path
       sodipodi:nodetypes="ccccc"
       inkscape:connector-curvature="0"
       id="ground_3"
       d="m -104,1064.3622 0,-4.2713 -639.99993,0 -640.00007,0 0,4.2713"
       style="fill:#d40000;stroke:none" />
    <path
       style="fill:#0000ff;fill-opacity:1;stroke:none"
       d="m -128.7159,203.36218 24.716,-35 -24.716,-35 z"
       id="portal_entry_1"
       inkscape:connector-curvature="0"
       sodipodi:nodetypes="cccc" />
    <path
       sodipodi:nodetypes="cccc"
       inkscape:connector-curvature="0"
       id="portal_exit_1"
       d="m -1384.0001,563.36218 24.716,35 -24.716,35 z"
       style="fill:#0000ff;fill-opacity:1;stroke:none" />
    <path
       sodipodi:nodetypes="cccc"
       inkscape:connector-curvature="0"
       id="portal_entry_2"
       d="m -128.7159,623.36218 24.716,-35 -24.716,-35 z"
       style="fill:#0000ff;fill-opacity:1;stroke:none" />
    <path
       style="fill:#0000ff;fill-opacity:1;stroke:none"
       d="m -1384.0001,927.36218 24.716,35 -24.716,35 z"
       id="portal_exit_2"
       inkscape:connector-curvature="0"
       sodipodi:nodetypes="cccc" />
    <path
       style="fill:#800000;fill-opacity:1;stroke:none"
       d="m -901.1473,634.29795 60,0 0,114 -60,0 z"
       id="wall_6"
       inkscape:connector-curvature="0" />
    <path
       inkscape:connector-curvature="0"
       id="wall_10"
       d="m -365.14725,39.79795 70,0 0,166 -70,0 z"
       style="fill:#800000;fill-opacity:1;stroke:none" />
    <text
       xml:space="preserve"
       style="font-size:12px;font-style:normal;font-weight:normal;line-height:125%;letter-spacing:0px;word-spacing:0px;fill:#000000;fill-opacity:1;stroke:none;font-family:Sans"
       x="-694"
       y="-157.63782"
       id="text3764"
       sodipodi:linespacing="125%"><tspan
         y="-157.63782"
         x="-694"
         sodipodi:role="line"
         id="tspan3766" /></text>
    <path
       sodipodi:type="star"
       style="fill:#ffff00;fill-opacity:1;stroke:none"
       id="path3259"
       sodipodi:sides="5"
       sodipodi:cx="-916"
       sodipodi:cy="284.36218"
       sodipodi:r1="40.102077"
       sodipodi:r2="93.037628"
       sodipodi:arg1="1.8621657"
       sodipodi:arg2="2.4904842"
       inkscape:flatsided="false"
       inkscape:rounded="0"
       inkscape:randomized="0"
       d="m -927.51989,322.77401 -62.4834,17.97534 33.91163,-55.47332 -36.404,-53.87057 63.23754,15.10968 39.98449,-51.26918 5.17132,64.81162 61.11578,22.18447 -60.04149,24.94611 -2.21287,64.97993 z"
       transform="matrix(0.25140577,0.1248776,-0.1248776,0.25140577,-63.2031,955.73486)" />
    <path
       sodipodi:type="arc"
       style="fill:#f9f9f9;fill-opacity:1;stroke:none"
       id="path3415"
       sodipodi:cx="-777"
       sodipodi:cy="96.862183"
       sodipodi:rx="74.5"
       sodipodi:ry="74.5"
       d="m -702.5,96.862183 a 74.5,74.5 0 1 1 -149,0 74.5,74.5 0 1 1 149,0 z"
       transform="matrix(0.18791947,0,0,0.18791947,-608.48658,35.159893)" />
    <path
       style="fill:#f9f9f9;fill-opacity:1;stroke:none"
       id="path4185"
       d="m -244.9944,45.322166 c -3.26381,5.600099 -4.48775,11.705413 -4.99724,18.091267 -0.36931,14.238736 0.0943,28.480687 0.79736,42.701387 0.35191,18.3709 1.62205,36.64793 3.29982,54.93734 1.47395,15.41191 2.07637,30.88986 2.44966,46.36207 0.32528,11.07772 0.33245,22.16208 0.31145,33.24363 -0.29207,8.91375 0.48381,17.77533 1.28079,26.64007 0.24096,3.14262 0.43455,6.28729 0.70338,9.42763 0,0 -26.15085,13.50163 -26.15085,13.50163 l 0,0 c -0.0716,-3.16469 -0.19136,-6.32745 -0.43074,-9.48477 -0.6179,-8.99183 -1.48591,-17.97922 -1.07782,-27.00492 -0.004,-11.11804 0.0427,-22.23597 0.0253,-33.35404 -0.19512,-15.48064 -0.61563,-30.96311 -1.96146,-46.39372 -1.54027,-18.30968 -2.89032,-36.60142 -3.44187,-54.97311 -0.80618,-14.17931 -1.43785,-28.362721 -1.71834,-42.563829 0.14242,-6.301613 0.63425,-13.118189 3.94238,-18.658257 0,0 26.96814,-12.472378 26.96814,-12.472378 z"
       inkscape:connector-curvature="0" />
    <path
       style="fill:#f9f9f9;fill-opacity:1;stroke:none"
       id="path4187"
       d="m -298.53023,216.64271 c 2.72928,6.22978 6.23128,12.04882 10.18721,17.56607 4.65755,6.34214 9.44206,12.55467 14.47692,18.60401 5.38002,7.11602 11.15967,13.90522 17.19567,20.46912 5.11872,4.85963 9.04354,10.92029 14.51079,15.38966 2.2648,1.22947 3.53663,0.85641 5.50738,-0.51138 0.50495,-0.35045 2.04245,-1.36396 1.50583,-1.06423 -23.96591,13.38633 -29.80447,20.4481 -22.57606,12.10058 3.87153,-6.19682 7.38305,-12.60116 11.07926,-18.90555 7.4158,-12.73591 14.39275,-25.71292 21.64283,-38.5429 5.37727,-9.66912 10.12005,-19.67723 15.323,-29.43311 2.10124,-3.63448 1.09787,-1.96083 2.98916,-5.03347 0,0 26.98943,-11.75586 26.98943,-11.75586 l 0,0 c -2.25824,2.93557 -1.10739,1.3032 -3.38139,4.94648 -3.91622,6.2907 -0.34727,0.27153 -4.08845,7.57984 -3.83647,7.49447 -8.31152,14.6428 -12.04896,22.18927 -7.18236,12.69163 -14.07926,25.52519 -21.1122,38.30056 -3.39696,6.28919 -6.89735,12.49951 -10.35175,18.74964 -5.36445,11.37887 -0.61462,2.26248 -27.54617,18.30732 -2.94886,1.75683 -6.34025,0.29948 -8.87872,-1.40022 -5.26526,-4.84133 -9.24707,-10.87875 -14.38469,-15.86655 -5.998,-6.65834 -11.77783,-13.49427 -17.32491,-20.53426 -5.10424,-6.0808 -9.89832,-12.36864 -14.57344,-18.78169 -4.19151,-5.73273 -7.68564,-11.85799 -11.12334,-18.06357 0,0 25.9826,-14.30976 25.9826,-14.30976 z"
       inkscape:connector-curvature="0" />
    <path
       transform="matrix(0.18791947,0,0,0.18791947,-818.48658,587.15989)"
       d="m -702.5,96.862183 a 74.5,74.5 0 1 1 -149,0 74.5,74.5 0 1 1 149,0 z"
       sodipodi:ry="74.5"
       sodipodi:rx="74.5"
       sodipodi:cy="96.862183"
       sodipodi:cx="-777"
       id="path4189"
       style="fill:#f9f9f9;fill-opacity:1;stroke:none"
       sodipodi:type="arc" />
    <path
       style="fill:#f9f9f9;fill-opacity:1;stroke:none"
       id="path4197"
       d="m -803.22246,751.66396 c 0.40843,-9.6186 0.40035,-19.25039 0.50843,-28.8758 0.68024,-13.62369 -1.10526,-27.13611 -2.33191,-40.66987 -1.11738,-13.75322 -2.27976,-27.49912 -3.02628,-41.2786 0.21637,-10.04533 -1.47398,-19.85426 -3.23371,-29.68829 -0.17805,-1.18653 -0.3561,-2.37305 -0.53414,-3.55958 0,0 25.83257,-13.61901 25.83257,-13.61901 l 0,0 c 0.15291,1.17333 0.30582,2.34666 0.45873,3.51999 1.51772,10.05339 3.19558,20.0519 2.82838,30.27275 0.603,13.76191 1.77166,27.47014 2.94746,41.19178 1.18744,13.60814 3.06623,27.17865 2.48696,40.87459 0.10737,9.45264 0.0948,18.9122 0.50843,28.35767 0,0 -26.44492,13.47437 -26.44492,13.47437 z"
       inkscape:connector-curvature="0" />
    <path
       style="fill:#f9f9f9;fill-opacity:1;stroke:none"
       id="path4199"
       d="m -842.78559,629.03609 c 4.41165,-8.64237 9.21386,-17.06754 13.20623,-25.91571 4.24632,-9.75362 9.22191,-19.15831 14.59521,-28.33166 0.36842,-0.63828 3.44089,-5.99993 3.98304,-6.79805 0.83376,-1.22743 2.61995,-3.50983 4.01498,-4.30182 27.17854,-15.42989 17.18997,-16.57074 29.72409,-14.52008 4.9402,1.74168 7.29882,6.31452 9.2418,10.8282 3.5605,6.93902 7.19772,13.87587 11.31253,20.50941 2.33951,3.33198 4.64403,6.68317 6.88141,10.08431 0,0 -25.13613,14.70217 -25.13613,14.70217 l 0,0 c -2.2386,-3.43019 -4.49276,-6.85037 -6.8798,-10.18026 -4.13191,-6.76135 -7.88273,-13.75566 -11.73445,-20.67261 -1.67424,-3.39976 -3.2982,-7.58037 -7.61399,-7.96628 -10.84127,1.69887 -2.12317,0.56775 21.55774,-13.55984 0.77011,-0.45943 -1.62921,0.77108 -2.36141,1.28879 -3.12481,2.20946 -4.63764,5.63214 -6.47952,8.86209 -5.71574,8.97005 -10.62769,18.43264 -15.05318,28.102 -3.67744,8.75572 -8.42916,16.97408 -12.25196,25.65071 0,0 -27.00659,12.21863 -27.00659,12.21863 z"
       inkscape:connector-curvature="0" />
    <text
       sodipodi:linespacing="125%"
       id="text4201"
       y="300.44855"
       x="-1359.3301"
       style="font-size:56px;font-style:normal;font-variant:normal;font-weight:normal;font-stretch:normal;text-align:start;line-height:125%;letter-spacing:0px;word-spacing:0px;text-anchor:start;fill:#f2f2f2;fill-opacity:1;stroke:none;font-family:'8BIT WONDER';-inkscape-font-specification:'8BIT WONDER'"
       xml:space="preserve"><tspan
         y="300.44855"
         x="-1359.3301"
         id="tspan4203"
         sodipodi:role="line">Others don't! :)</tspan></text>
    <path
       inkscape:connector-curvature="0"
       id="path4205"
       d="m -357.1473,948.29795 60,0 0,56.00005 -60,0 z"
       style="fill:#800000;fill-opacity:1;stroke:none" />
    <text
       xml:space="preserve"
       style="font-size:56px;font-style:normal;font-variant:normal;font-weight:normal;font-stretch:normal;text-align:start;line-height:125%;letter-spacing:0px;word-spacing:0px;text-anchor:start;fill:#f2f2f2;fill-opacity:1;stroke:none;font-family:'8BIT WONDER';-inkscape-font-specification:'8BIT WONDER'"
       x="-1369.3301"
       y="828.44855"
       id="text4207"
       sodipodi:linespacing="125%"><tspan
         sodipodi:role="line"
         x="-1369.3301"
         y="828.44855"
         id="tspan4211">OMG, a star!! Pick it up , pick it up!</tspan></text>
  </g>
</svg>
