<?xml version="1.0" encoding="UTF-8" standalone="no"?>
<!-- Created with Inkscape (http://www.inkscape.org/) -->

<svg
   xmlns:dc="http://purl.org/dc/elements/1.1/"
   xmlns:cc="http://creativecommons.org/ns#"
   xmlns:rdf="http://www.w3.org/1999/02/22-rdf-syntax-ns#"
   xmlns:svg="http://www.w3.org/2000/svg"
   xmlns="http://www.w3.org/2000/svg"
   xmlns:xlink="http://www.w3.org/1999/xlink"
   xmlns:sodipodi="http://sodipodi.sourceforge.net/DTD/sodipodi-0.dtd"
   xmlns:inkscape="http://www.inkscape.org/namespaces/inkscape"
   width="1280"
   height="1280"
   id="svg2"
   version="1.1"
   inkscape:version="0.48.2 r9819"
   sodipodi:docname="level#1.0.svg">
  <defs
     id="defs4">
    <linearGradient
       inkscape:collect="always"
       id="linearGradient3133">
      <stop
         style="stop-color:#ffcc00;stop-opacity:1;"
         offset="0"
         id="stop3135" />
      <stop
         style="stop-color:#ffcc00;stop-opacity:0;"
         offset="1"
         id="stop3137" />
    </linearGradient>
    <inkscape:path-effect
       effect="skeletal"
       id="path-effect3790"
       is_visible="true"
       pattern="M 0,5 C 0,2.24 2.24,0 5,0 7.76,0 10,2.24 10,5 10,7.76 7.76,10 5,10 2.24,10 0,7.76 0,5 z"
       copytype="single_stretched"
       prop_scale="1"
       scale_y_rel="false"
       spacing="0"
       normal_offset="0"
       tang_offset="0"
       prop_units="false"
       vertical_pattern="false"
       fuse_tolerance="0" />
    <inkscape:path-effect
       effect="skeletal"
       id="path-effect3786"
       is_visible="true"
       pattern="M 0,5 C 0,2.24 2.24,0 5,0 7.76,0 10,2.24 10,5 10,7.76 7.76,10 5,10 2.24,10 0,7.76 0,5 z"
       copytype="single_stretched"
       prop_scale="1"
       scale_y_rel="false"
       spacing="0"
       normal_offset="0"
       tang_offset="0"
       prop_units="false"
       vertical_pattern="false"
       fuse_tolerance="0" />
    <inkscape:path-effect
       effect="skeletal"
       id="path-effect3782"
       is_visible="true"
       pattern="M 0,5 C 0,2.24 2.24,0 5,0 7.76,0 10,2.24 10,5 10,7.76 7.76,10 5,10 2.24,10 0,7.76 0,5 z"
       copytype="single_stretched"
       prop_scale="1"
       scale_y_rel="false"
       spacing="0"
       normal_offset="0"
       tang_offset="0"
       prop_units="false"
       vertical_pattern="false"
       fuse_tolerance="0" />
    <inkscape:path-effect
       effect="skeletal"
       id="path-effect3778"
       is_visible="true"
       pattern="M 0,5 C 0,2.24 2.24,0 5,0 7.76,0 10,2.24 10,5 10,7.76 7.76,10 5,10 2.24,10 0,7.76 0,5 z"
       copytype="single_stretched"
       prop_scale="1"
       scale_y_rel="false"
       spacing="0"
       normal_offset="0"
       tang_offset="0"
       prop_units="false"
       vertical_pattern="false"
       fuse_tolerance="0" />
    <inkscape:path-effect
       effect="skeletal"
       id="path-effect3762"
       is_visible="true"
       pattern="M 0,5 C 0,2.24 2.24,0 5,0 7.76,0 10,2.24 10,5 10,7.76 7.76,10 5,10 2.24,10 0,7.76 0,5 z"
       copytype="single_stretched"
       prop_scale="1"
       scale_y_rel="false"
       spacing="0"
       normal_offset="0"
       tang_offset="0"
       prop_units="false"
       vertical_pattern="false"
       fuse_tolerance="0" />
    <radialGradient
       inkscape:collect="always"
       xlink:href="#linearGradient3133"
       id="radialGradient3139"
       cx="-734.30402"
       cy="678.78552"
       fx="-734.30402"
       fy="678.78552"
       r="60.278887"
       gradientTransform="matrix(1.3201527,0.89636831,-0.80512792,1.1857783,776.50627,531.93746)"
       gradientUnits="userSpaceOnUse" />
    <filter
       inkscape:collect="always"
       id="filter3855">
      <feGaussianBlur
         inkscape:collect="always"
         stdDeviation="1.5591704"
         id="feGaussianBlur3857" />
    </filter>
  </defs>
  <sodipodi:namedview
     id="base"
     pagecolor="#ffffff"
     bordercolor="#666666"
     borderopacity="1.0"
     inkscape:pageopacity="0.0"
     inkscape:pageshadow="2"
     inkscape:zoom="4"
     inkscape:cx="543.18806"
     inkscape:cy="584.03696"
     inkscape:document-units="px"
     inkscape:current-layer="layer1"
     showgrid="false"
     inkscape:window-width="1680"
     inkscape:window-height="1028"
     inkscape:window-x="1592"
     inkscape:window-y="-8"
     inkscape:window-maximized="1" />
  <metadata
     id="metadata7">
    <rdf:RDF>
      <cc:Work
         rdf:about="">
        <dc:format>image/svg+xml</dc:format>
        <dc:type
           rdf:resource="http://purl.org/dc/dcmitype/StillImage" />
        <dc:title />
      </cc:Work>
    </rdf:RDF>
  </metadata>
  <g
     inkscape:label="Layer 1"
     inkscape:groupmode="layer"
     id="layer1"
     transform="translate(0,227.63782)">
    <path
       style="opacity:0.1;fill:#ffff00;stroke:none"
       d="m 1.1473,-226.78572 1280,0 0,1280.00002 -1280,0 z"
       id="board"
       inkscape:connector-curvature="0" />
    <path
       style="fill:#4d4d4d;fill-opacity:1;stroke:none"
       d="m 1281.1473,626.21428 -1280,0 0,427.00002 1280,0 z"
       id="path3370"
       inkscape:connector-curvature="0"
       sodipodi:nodetypes="ccccc" />
    <path
       style="fill:#999999;fill-opacity:1;stroke:none"
       d="m 1281.1473,200.21428 -1280,0 0,426 1280,0 0,-426 z"
       id="path3368"
       inkscape:connector-curvature="0" />
    <path
       style="fill:#4d4d4d;fill-opacity:1;stroke:none"
       d="m 1.1473,-226.78571 0,426.99999 1280,0 0,-426.99999 -1280,0 z"
       id="rect2997"
       inkscape:connector-curvature="0" />
    <text
       xml:space="preserve"
       style="font-size:56px;font-style:normal;font-variant:normal;font-weight:normal;font-stretch:normal;text-align:start;line-height:125%;letter-spacing:0px;word-spacing:0px;text-anchor:start;fill:#f2f2f2;fill-opacity:1;stroke:none;font-family:Arial;-inkscape-font-specification:Arial"
       x="25.817139"
       y="269.30066"
       id="text2989"
       sodipodi:linespacing="125%"><tspan
         sodipodi:role="line"
         id="tspan2991"
         x="25.817139"
         y="269.30066">Get ready!</tspan></text>
    <text
       sodipodi:linespacing="125%"
       id="text2993"
       y="269.30066"
       x="1261.2247"
       style="font-size:56px;font-style:normal;font-variant:normal;font-weight:normal;font-stretch:normal;text-align:end;line-height:125%;letter-spacing:0px;word-spacing:0px;text-anchor:end;fill:#f2f2f2;fill-opacity:1;stroke:none;font-family:Arial;-inkscape-font-specification:Arial"
       xml:space="preserve"><tspan
         y="269.30066"
         x="1261.2247"
         id="tspan2995"
         sodipodi:role="line">Go rescue her!</tspan></text>
    <path
       sodipodi:nodetypes="cccc"
       inkscape:connector-curvature="0"
       id="goal"
       d="m 1256.4313,408.21428 24.716,-35 -24.716,-35 z"
       style="fill:#000000;fill-opacity:1;stroke:none" />
    <path
       style="fill:#00ff00;fill-opacity:1;stroke:none"
       d="m 1.1472,556.21428 24.716,35 -24.716,35 z"
       id="spawn"
       inkscape:connector-curvature="0"
       sodipodi:nodetypes="cccc" />
    <path
       style="fill:#d40000;stroke:none"
       d="m 1281.1473,628.71427 0,-2.49999 -1280,0 0,2.5"
       id="ground_1"
       inkscape:connector-curvature="0"
       sodipodi:nodetypes="cccc" />
    <path
       style="fill:#008080;fill-opacity:1;stroke:none"
       d="m 98.5,544.86218 51,0 0,51 -51,0 z"
       id="daBox"
       inkscape:connector-curvature="0"
       inkscape:export-filename="K:\temp_workspace\microm\microm\data\textures\daBox.png"
       inkscape:export-xdpi="90"
       inkscape:export-ydpi="90" />
    <path
       style="fill:#ffff00;fill-opacity:1;stroke:none"
       d="m 677.7782,604.79743 -7.79292,14.48797 -4.04586,-15.94557 -16.18701,-2.93447 13.9149,-8.77529 -2.21125,-16.30156 12.64577,10.52213 14.8204,-7.14047 -6.09941,15.27835 11.37075,11.8885 z"
       id="star"
       inkscape:connector-curvature="0" />
    <path
       style="fill:#ff0000;fill-opacity:1;stroke:none"
       d="m 242.5,621.73718 16.5,0 m 0,0 -8.1267,-20.9375 8.1267,-20.9375 -16.5,0 8.10428,20.9375 -8.10428,20.9375"
       id="trigger_1"
       inkscape:connector-curvature="0"
       sodipodi:nodetypes="cccccccc"
       custom-script="cs.out(&quot;trigger_1&quot;); function add(a,b){return a + '&lt;---&gt;' + b;}; cs.out(&quot;puff&gt;&gt;&gt; &quot; + add(__ACTOR_A, __ACTOR_B)); if (__EVENT_TYPE.indexOf(&quot;ON_COLLISION_BEGIN&quot;) !== -1)  if ((__ACTOR_A.indexOf(&quot;trigger&quot;) !== -1) || (__ACTOR_B.indexOf(&quot;trigger&quot;) !== -1))   cs.m.jump();" />
    <path
       sodipodi:nodetypes="cccccccc"
       inkscape:connector-curvature="0"
       id="trigger_2"
       d="m 909.8125,592.54968 0,16.5 m 0,0 20.9375,-8.1267 20.9375,8.1267 0,-16.5 -20.9375,8.10428 -20.9375,-8.10428"
       style="fill:#ff0000;fill-opacity:1;stroke:none"
       custom-script="cs.out(&quot;trigger_2&quot;); function add(a,b){return a + '&lt;---&gt;' + b;}; cs.out(&quot;puff&gt;&gt;&gt; &quot; + add(__ACTOR_A, __ACTOR_B)); if (__EVENT_TYPE.indexOf(&quot;ON_COLLISION_BEGIN&quot;) !== -1)  if ((__ACTOR_A.indexOf(&quot;trigger&quot;) !== -1) || (__ACTOR_B.indexOf(&quot;trigger&quot;) !== -1))   cs.m.jump();" />
    <path
       inkscape:connector-curvature="0"
       id="path3045"
       d="m 425.67827,432.93665 89.09545,0 0,118.79393 -89.09545,0 z"
       style="fill:#3e1900;fill-opacity:1;stroke:none;opacity:0.71999999999999997;filter:url(#filter3855)" />
    <path
       style="fill:#ff6600;fill-opacity:1;stroke:none;opacity:0.8"
       d="m 425.67827,432.93665 89.09545,0 0,118.79393 -89.09545,0 z"
       id="wall_3341"
       inkscape:connector-curvature="0" />
    <path
       style="opacity:0.8;fill:#3e1900;fill-opacity:1;stroke:none"
       id="path3873"
       d="m 571.53276,649.47086 c 15.21408,-8.49482 30.09236,-17.62115 45.64223,-25.48447 6.6462,-3.36087 13.84411,-5.49864 20.81457,-8.12165 10.78567,-4.05868 21.63419,-7.94833 32.45129,-11.92249 15.01308,-5.5484 30.06101,-11.00337 45.03923,-16.64519 19.99268,-7.53061 39.91463,-15.24768 59.87194,-22.87153 25.10871,-9.42124 50.21742,-18.84249 75.32613,-28.26374 220.05995,-79.62985 435.74665,-170.65706 650.59875,-263.2418 119.906,-52.23581 241.706,-99.82879 364.3089,-145.29124 0,0 -22.5098,17.58076 -22.5098,17.58076 l 0,0 c -21.7437,7.677 -43.567,15.13185 -65.2309,23.03098 -97.8953,35.69478 -194.5526,74.65943 -290.37,115.59162 -217.4669,93.68763 -435.7346,185.68685 -657.5785,268.61924 -62.51557,24.29937 -124.87875,48.96528 -187.35716,73.35665 -11.43896,4.46574 -22.91971,8.82912 -34.2791,13.49355 -7.53365,3.09348 -25.75693,17.1923 -22.39088,9.77642 3.95425,-8.71174 16.42448,-9.81622 24.63672,-14.72432 0,0 -38.97342,15.11721 -38.97342,15.11721 z"
       inkscape:connector-curvature="0"
       transform="translate(0,-227.63782)" />
    <path
       style="opacity:0.8;fill:#3e1900;fill-opacity:1;stroke:none"
       id="path3877"
       d="m 660.01238,586.13271 c -8.83567,8.48495 -18.82863,15.78266 -28.41536,23.42448 -9.6235,8.72048 -19.73525,16.84851 -29.68183,25.18159 -2.11015,2.38437 -5.34792,4.94018 -6.02729,8.32176 -0.0312,0.15518 0.29773,-0.12441 0.45576,-0.13326 0.90846,-0.0508 1.81946,-0.0333 2.72926,-0.045 2.03001,-0.0261 4.0601,-0.0455 6.09016,-0.0683 14.94317,-1.29393 29.73087,-3.56118 44.4404,-6.43627 0,0 -31.83745,24.06167 -31.83745,24.06167 l 0,0 c -15.20849,2.83502 -30.49323,5.37471 -45.94396,6.46647 -4.0403,-0.23299 -8.11676,0.38289 -11.51544,-2.38499 -5.36371,-4.36821 0.45635,-10.59222 3.34862,-14.23064 9.6509,-8.81619 20.6498,-16.15183 29.90606,-25.46841 9.25099,-7.43159 18.43002,-14.94652 27.82559,-22.18682 0,0 38.62548,-16.50228 38.62548,-16.50228 z"
       inkscape:connector-curvature="0"
       transform="translate(0,-227.63782)" />
    <text
       xml:space="preserve"
       style="font-size:72px;font-style:normal;font-weight:normal;line-height:125%;letter-spacing:0px;word-spacing:0px;fill:#000000;fill-opacity:1;stroke:none;font-family:Sans"
       x="1581.0907"
       y="155.75079"
       id="text3879"
       sodipodi:linespacing="125%"><tspan
         sodipodi:role="line"
         id="tspan3881"
         x="1581.0907"
         y="155.75079">O efeito do blur, tem que ser conseguido</tspan><tspan
         sodipodi:role="line"
         x="1581.0907"
         y="245.75081"
         id="tspan3883">no motor do jogo</tspan></text>
  </g>
</svg>
