<?xml version="1.0" encoding="UTF-8" standalone="no"?>
<!-- Created with Inkscape (http://www.inkscape.org/) -->

<svg
   xmlns:dc="http://purl.org/dc/elements/1.1/"
   xmlns:cc="http://creativecommons.org/ns#"
   xmlns:rdf="http://www.w3.org/1999/02/22-rdf-syntax-ns#"
   xmlns:svg="http://www.w3.org/2000/svg"
   xmlns="http://www.w3.org/2000/svg"
   xmlns:sodipodi="http://sodipodi.sourceforge.net/DTD/sodipodi-0.dtd"
   xmlns:inkscape="http://www.inkscape.org/namespaces/inkscape"
   width="744.09448819"
   height="1052.3622047"
   id="svg2"
   version="1.1"
   inkscape:version="0.92.2 5c3e80d, 2017-08-06"
   sodipodi:docname="level#1.4.svg">
  <defs
     id="defs4">
    <inkscape:path-effect
       effect="skeletal"
       id="path-effect3790"
       is_visible="true"
       pattern="M 0,5 C 0,2.24 2.24,0 5,0 7.76,0 10,2.24 10,5 10,7.76 7.76,10 5,10 2.24,10 0,7.76 0,5 z"
       copytype="single_stretched"
       prop_scale="1"
       scale_y_rel="false"
       spacing="0"
       normal_offset="0"
       tang_offset="0"
       prop_units="false"
       vertical_pattern="false"
       fuse_tolerance="0" />
    <inkscape:path-effect
       effect="skeletal"
       id="path-effect3786"
       is_visible="true"
       pattern="M 0,5 C 0,2.24 2.24,0 5,0 7.76,0 10,2.24 10,5 10,7.76 7.76,10 5,10 2.24,10 0,7.76 0,5 z"
       copytype="single_stretched"
       prop_scale="1"
       scale_y_rel="false"
       spacing="0"
       normal_offset="0"
       tang_offset="0"
       prop_units="false"
       vertical_pattern="false"
       fuse_tolerance="0" />
    <inkscape:path-effect
       effect="skeletal"
       id="path-effect3782"
       is_visible="true"
       pattern="M 0,5 C 0,2.24 2.24,0 5,0 7.76,0 10,2.24 10,5 10,7.76 7.76,10 5,10 2.24,10 0,7.76 0,5 z"
       copytype="single_stretched"
       prop_scale="1"
       scale_y_rel="false"
       spacing="0"
       normal_offset="0"
       tang_offset="0"
       prop_units="false"
       vertical_pattern="false"
       fuse_tolerance="0" />
    <inkscape:path-effect
       effect="skeletal"
       id="path-effect3778"
       is_visible="true"
       pattern="M 0,5 C 0,2.24 2.24,0 5,0 7.76,0 10,2.24 10,5 10,7.76 7.76,10 5,10 2.24,10 0,7.76 0,5 z"
       copytype="single_stretched"
       prop_scale="1"
       scale_y_rel="false"
       spacing="0"
       normal_offset="0"
       tang_offset="0"
       prop_units="false"
       vertical_pattern="false"
       fuse_tolerance="0" />
    <inkscape:path-effect
       effect="skeletal"
       id="path-effect3762"
       is_visible="true"
       pattern="M 0,5 C 0,2.24 2.24,0 5,0 7.76,0 10,2.24 10,5 10,7.76 7.76,10 5,10 2.24,10 0,7.76 0,5 z"
       copytype="single_stretched"
       prop_scale="1"
       scale_y_rel="false"
       spacing="0"
       normal_offset="0"
       tang_offset="0"
       prop_units="false"
       vertical_pattern="false"
       fuse_tolerance="0" />
  </defs>
  <sodipodi:namedview
     id="base"
     pagecolor="#ffffff"
     bordercolor="#666666"
     borderopacity="1.0"
     inkscape:pageopacity="0.0"
     inkscape:pageshadow="2"
     inkscape:zoom="0.5"
     inkscape:cx="-992.77208"
     inkscape:cy="335.25587"
     inkscape:document-units="px"
     inkscape:current-layer="layer1"
     showgrid="false"
     inkscape:window-width="2560"
     inkscape:window-height="1343"
     inkscape:window-x="0"
     inkscape:window-y="1"
     inkscape:window-maximized="1" />
  <metadata
     id="metadata7">
    <rdf:RDF>
      <cc:Work
         rdf:about="">
        <dc:format>image/svg+xml</dc:format>
        <dc:type
           rdf:resource="http://purl.org/dc/dcmitype/StillImage" />
        <dc:title />
      </cc:Work>
    </rdf:RDF>
  </metadata>
  <g
     inkscape:label="Layer 1"
     inkscape:groupmode="layer"
     id="layer1">
    <path
       inkscape:connector-curvature="0"
       style="opacity:0.1;fill:#ffff00;stroke:none"
       d="m -1232,-105.63782 1280.0001,0 0,1280.00002 -1280.0001,0 z"
       id="board" />
    <path
       style="fill:#4d4d4d;fill-opacity:1;stroke:none"
       d="m 48,747.36218 -1280,0 0,427.00002 1280.0001,0 z"
       id="path3370"
       inkscape:connector-curvature="0"
       sodipodi:nodetypes="ccccc"
       inkscape:export-filename="K:\temp_workspace\microm\microm\data\textures\txr_3_3_board.png"
       inkscape:export-xdpi="90"
       inkscape:export-ydpi="90" />
    <path
       style="fill:#999999;fill-opacity:1;stroke:none"
       d="m 48,321.36218 -1280,0 0,426 1280.0001,0 0,-426 z"
       id="path3368"
       inkscape:connector-curvature="0"
       inkscape:export-filename="K:\temp_workspace\microm\microm\data\textures\txr_2_3_board.png"
       inkscape:export-xdpi="90"
       inkscape:export-ydpi="90" />
    <path
       style="fill:#4d4d4d;fill-opacity:1;stroke:none"
       d="m -1232,-105.63781 0,426.99999 1280.0001,0 0,-426.99999 -1280.0001,0 z"
       id="rect2997"
       inkscape:connector-curvature="0"
       inkscape:export-filename="K:\temp_workspace\microm\microm\data\textures\txr_1_3_board.png"
       inkscape:export-xdpi="90"
       inkscape:export-ydpi="90" />
    <text
       xml:space="preserve"
       style="font-style:normal;font-variant:normal;font-weight:bold;font-stretch:normal;line-height:0%;font-family:Arial;-inkscape-font-specification:'Arial Bold';text-align:start;letter-spacing:0px;word-spacing:0px;text-anchor:start;fill:#f2f2f2;fill-opacity:1;stroke:none"
       x="-1207.3301"
       y="-29.551453"
       id="text2989"><tspan
         sodipodi:role="line"
         id="tspan2991"
         x="-1207.3301"
         y="-29.551453"
         style="font-size:56px;line-height:1.25">Ok, no more trivial stuff</tspan></text>
    <path
       style="fill:#008080;fill-opacity:1;stroke:none"
       d="m -1156.1473,245.29792 51,0 0,51 -51,0 z"
       id="daBox"
       inkscape:connector-curvature="0"
       inkscape:export-filename="K:\temp_workspace\microm\microm\data\textures\daBox.png"
       inkscape:export-xdpi="90"
       inkscape:export-ydpi="90" />
    <path
       sodipodi:nodetypes="cccc"
       inkscape:connector-curvature="0"
       id="goal"
       d="m 23.2841,1163.3622 24.716,-35 -24.716,-35 z"
       style="fill:#000000;fill-opacity:1;stroke:none" />
    <path
       style="fill:#00ff00;fill-opacity:1;stroke:none"
       d="m -1232.0001,239.36218 24.716,35 -24.716,35 z"
       id="spawn"
       inkscape:connector-curvature="0"
       sodipodi:nodetypes="cccc" />
    <path
       sodipodi:nodetypes="ccccc"
       inkscape:connector-curvature="0"
       id="ground_1"
       d="m 48,321.36217 0,-3.56422 -644.24257,0 -635.75743,0 0,3.56423"
       style="fill:#d40000;stroke:none" />
    <path
       style="fill:#d40000;stroke:none"
       d="m 48,749.86218 0,-3.56423 -639.99993,0 -640.00007,0 0,3.56423"
       id="ground_2"
       inkscape:connector-curvature="0"
       sodipodi:nodetypes="ccccc" />
    <path
       sodipodi:nodetypes="ccccc"
       inkscape:connector-curvature="0"
       id="ground_3"
       d="m 48,1174.3622 0,-4.2713 -639.99993,0 -640.00007,0 0,4.2713"
       style="fill:#d40000;stroke:none" />
    <path
       style="fill:#0000ff;fill-opacity:1;stroke:none"
       d="m 23.2841,313.36218 24.716,-35 -24.716,-35 z"
       id="portal_entry_1"
       inkscape:connector-curvature="0"
       sodipodi:nodetypes="cccc" />
    <path
       sodipodi:nodetypes="cccc"
       inkscape:connector-curvature="0"
       id="portal_exit_1"
       d="m -1232.0001,673.36218 24.716,35 -24.716,35 z"
       style="fill:#0000ff;fill-opacity:1;stroke:none" />
    <path
       sodipodi:nodetypes="cccc"
       inkscape:connector-curvature="0"
       id="portal_entry_2"
       d="m 23.2841,733.36218 24.716,-35 -24.716,-35 z"
       style="fill:#0000ff;fill-opacity:1;stroke:none" />
    <path
       style="fill:#0000ff;fill-opacity:1;stroke:none"
       d="m -1232.0001,1037.3622 24.716,35 -24.716,35 z"
       id="portal_exit_2"
       inkscape:connector-curvature="0"
       sodipodi:nodetypes="cccc" />
    <path
       style="fill:#800000;fill-opacity:1;stroke:none"
       d="m -1067.1473,682.29795 60,0 0,66 -60,0 z"
       id="wall_6"
       inkscape:connector-curvature="0" />
    <path
       inkscape:connector-curvature="0"
       id="wall_10"
       d="m -925.1473,219.79795 70.0001,0 0,166 -70.0001,0 z"
       style="fill:#800000;fill-opacity:1;stroke:none" />
    <text
       xml:space="preserve"
       style="font-style:normal;font-variant:normal;font-weight:normal;font-stretch:normal;line-height:0%;font-family:Arial;-inkscape-font-specification:Arial;text-align:start;letter-spacing:0px;word-spacing:0px;text-anchor:start;fill:#f2f2f2;fill-opacity:1;stroke:none"
       x="-1207.3301"
       y="830.44861"
       id="text4207"><tspan
         sodipodi:role="line"
         x="-1207.3301"
         y="830.44861"
         id="tspan4211"
         style="font-size:56px;line-height:1.25">What's this?</tspan></text>
    <g
       id="g3330"
       transform="matrix(0.53043214,0,0,0.53043214,-548.95534,114.87343)">
      <path
         inkscape:connector-curvature="0"
         d="m -488.9944,223.32217 c -3.2638,5.60009 -4.4877,11.70541 -4.9972,18.09126 -0.3693,14.23874 0.094,28.48069 0.7973,42.70139 0.3519,18.3709 1.6221,36.64793 3.2998,54.93734 1.474,15.41191 2.0764,30.88986 2.4497,46.36207 0.3253,11.07772 0.3324,22.16208 0.3115,33.24363 -0.2921,8.91375 0.4838,17.77533 1.2807,26.64007 0.241,3.14262 0.4346,6.28729 0.7034,9.42763 0,0 -26.1508,13.50163 -26.1508,13.50163 l 0,0 c -0.072,-3.16469 -0.1914,-6.32745 -0.4308,-9.48477 -0.6179,-8.99183 -1.4859,-17.97922 -1.0778,-27.00492 0,-11.11804 0.043,-22.23597 0.025,-33.35404 -0.1951,-15.48064 -0.6156,-30.96311 -1.9614,-46.39372 -1.5403,-18.30968 -2.8904,-36.60142 -3.4419,-54.97311 -0.8062,-14.17931 -1.4379,-28.36272 -1.7184,-42.56383 0.1425,-6.30161 0.6343,-13.11819 3.9424,-18.65826 0,0 26.9682,-12.47237 26.9682,-12.47237 z"
         id="path4185"
         style="fill:#f9f9f9;fill-opacity:1;stroke:none" />
      <path
         inkscape:connector-curvature="0"
         d="m -542.5302,394.64271 c 2.7293,6.22978 6.2312,12.04882 10.1872,17.56607 4.6575,6.34214 9.442,12.55467 14.4769,18.60401 5.38,7.11602 11.1597,13.90522 17.1957,20.46912 5.1187,4.85963 9.0435,10.92029 14.5108,15.38966 2.2648,1.22947 3.5366,0.85641 5.5073,-0.51138 0.505,-0.35045 2.0425,-1.36396 1.5059,-1.06423 -23.9659,13.38633 -29.8045,20.4481 -22.5761,12.10058 3.8715,-6.19682 7.3831,-12.60116 11.0793,-18.90555 7.4158,-12.73591 14.3927,-25.71292 21.6428,-38.5429 5.3773,-9.66912 10.1201,-19.67723 15.323,-29.43311 2.1012,-3.63448 1.0979,-1.96083 2.9892,-5.03347 0,0 26.9894,-11.75586 26.9894,-11.75586 l 0,0 c -2.2582,2.93557 -1.1074,1.3032 -3.3814,4.94648 -3.9162,6.2907 -0.3473,0.27153 -4.0884,7.57984 -3.8365,7.49447 -8.3116,14.6428 -12.049,22.18927 -7.1824,12.69163 -14.0793,25.52519 -21.1122,38.30056 -3.397,6.28919 -6.8974,12.49951 -10.3518,18.74964 -5.3644,11.37887 -0.6146,2.26248 -27.5461,18.30732 -2.9489,1.75683 -6.3403,0.29948 -8.8787,-1.40022 -5.2653,-4.84133 -9.2471,-10.87875 -14.3847,-15.86655 -5.998,-6.65834 -11.7779,-13.49427 -17.3249,-20.53426 -5.1043,-6.0808 -9.8984,-12.36864 -14.5735,-18.78169 -4.1915,-5.73273 -7.6856,-11.85799 -11.1233,-18.06357 0,0 25.9826,-14.30976 25.9826,-14.30976 z"
         id="path4187"
         style="fill:#f9f9f9;fill-opacity:1;stroke:none" />
      <path
         style="fill:#f9f9f9;fill-opacity:1;stroke:none"
         id="path3324"
         d="m -542.5302,283.27825 c 2.7293,-6.22978 6.2312,-12.04882 10.1872,-17.56607 4.6575,-6.34214 9.442,-12.55467 14.4769,-18.60401 5.38,-7.11602 11.1597,-13.90522 17.1957,-20.46912 5.1187,-4.85963 9.0435,-10.92029 14.5108,-15.38966 2.2648,-1.22947 3.5366,-0.85641 5.5073,0.51138 0.505,0.35045 2.0425,1.36396 1.5059,1.06423 -23.9659,-13.38633 -29.8045,-20.4481 -22.5761,-12.10058 3.8715,6.19682 7.3831,12.60116 11.0793,18.90555 7.4158,12.73591 14.3927,25.71292 21.6428,38.5429 5.3773,9.66912 10.1201,19.67723 15.323,29.43311 2.1012,3.63448 1.0979,1.96083 2.9892,5.03347 0,0 26.9894,11.75586 26.9894,11.75586 l 0,0 c -2.2582,-2.93557 -1.1074,-1.3032 -3.3814,-4.94648 -3.9162,-6.2907 -0.3473,-0.27153 -4.0884,-7.57984 -3.8365,-7.49447 -8.3116,-14.6428 -12.049,-22.18927 -7.1824,-12.69163 -14.0793,-25.52519 -21.1122,-38.30056 -3.397,-6.28919 -6.8974,-12.49951 -10.3518,-18.74964 -5.3644,-11.37887 -0.6146,-2.26248 -27.5461,-18.30732 -2.9489,-1.75683 -6.3403,-0.29948 -8.8787,1.40022 -5.2653,4.84133 -9.2471,10.87875 -14.3847,15.86655 -5.998,6.65834 -11.7779,13.49427 -17.3249,20.53426 -5.1043,6.0808 -9.8984,12.36864 -14.5735,18.78169 -4.1915,5.73273 -7.6856,11.85799 -11.1233,18.06357 0,0 25.9826,14.30976 25.9826,14.30976 z"
         inkscape:connector-curvature="0" />
    </g>
    <path
       style="fill:#800000;fill-opacity:1;stroke:none"
       d="m -665.1473,277.79795 70.0001,0 0,166 -70.0001,0 z"
       id="path3326"
       inkscape:connector-curvature="0" />
    <path
       inkscape:connector-curvature="0"
       id="path3328"
       d="m -433.1473,217.79795 70.0001,0 0,166 -70.0001,0 z"
       style="fill:#800000;fill-opacity:1;stroke:none" />
    <g
       id="g3343"
       transform="matrix(0.53043214,0,0,0.53043214,-56.95534,106.87343)">
      <path
         inkscape:connector-curvature="0"
         d="m -488.9944,223.32217 c -3.2638,5.60009 -4.4877,11.70541 -4.9972,18.09126 -0.3693,14.23874 0.094,28.48069 0.7973,42.70139 0.3519,18.3709 1.6221,36.64793 3.2998,54.93734 1.474,15.41191 2.0764,30.88986 2.4497,46.36207 0.3253,11.07772 0.3324,22.16208 0.3115,33.24363 -0.2921,8.91375 0.4838,17.77533 1.2807,26.64007 0.241,3.14262 0.4346,6.28729 0.7034,9.42763 0,0 -26.1508,13.50163 -26.1508,13.50163 l 0,0 c -0.072,-3.16469 -0.1914,-6.32745 -0.4308,-9.48477 -0.6179,-8.99183 -1.4859,-17.97922 -1.0778,-27.00492 0,-11.11804 0.043,-22.23597 0.025,-33.35404 -0.1951,-15.48064 -0.6156,-30.96311 -1.9614,-46.39372 -1.5403,-18.30968 -2.8904,-36.60142 -3.4419,-54.97311 -0.8062,-14.17931 -1.4379,-28.36272 -1.7184,-42.56383 0.1425,-6.30161 0.6343,-13.11819 3.9424,-18.65826 0,0 26.9682,-12.47237 26.9682,-12.47237 z"
         id="path3345"
         style="fill:#f9f9f9;fill-opacity:1;stroke:none" />
      <path
         inkscape:connector-curvature="0"
         d="m -542.5302,394.64271 c 2.7293,6.22978 6.2312,12.04882 10.1872,17.56607 4.6575,6.34214 9.442,12.55467 14.4769,18.60401 5.38,7.11602 11.1597,13.90522 17.1957,20.46912 5.1187,4.85963 9.0435,10.92029 14.5108,15.38966 2.2648,1.22947 3.5366,0.85641 5.5073,-0.51138 0.505,-0.35045 2.0425,-1.36396 1.5059,-1.06423 -23.9659,13.38633 -29.8045,20.4481 -22.5761,12.10058 3.8715,-6.19682 7.3831,-12.60116 11.0793,-18.90555 7.4158,-12.73591 14.3927,-25.71292 21.6428,-38.5429 5.3773,-9.66912 10.1201,-19.67723 15.323,-29.43311 2.1012,-3.63448 1.0979,-1.96083 2.9892,-5.03347 0,0 26.9894,-11.75586 26.9894,-11.75586 l 0,0 c -2.2582,2.93557 -1.1074,1.3032 -3.3814,4.94648 -3.9162,6.2907 -0.3473,0.27153 -4.0884,7.57984 -3.8365,7.49447 -8.3116,14.6428 -12.049,22.18927 -7.1824,12.69163 -14.0793,25.52519 -21.1122,38.30056 -3.397,6.28919 -6.8974,12.49951 -10.3518,18.74964 -5.3644,11.37887 -0.6146,2.26248 -27.5461,18.30732 -2.9489,1.75683 -6.3403,0.29948 -8.8787,-1.40022 -5.2653,-4.84133 -9.2471,-10.87875 -14.3847,-15.86655 -5.998,-6.65834 -11.7779,-13.49427 -17.3249,-20.53426 -5.1043,-6.0808 -9.8984,-12.36864 -14.5735,-18.78169 -4.1915,-5.73273 -7.6856,-11.85799 -11.1233,-18.06357 0,0 25.9826,-14.30976 25.9826,-14.30976 z"
         id="path3347"
         style="fill:#f9f9f9;fill-opacity:1;stroke:none" />
      <path
         style="fill:#f9f9f9;fill-opacity:1;stroke:none"
         id="path3349"
         d="m -542.5302,283.27825 c 2.7293,-6.22978 6.2312,-12.04882 10.1872,-17.56607 4.6575,-6.34214 9.442,-12.55467 14.4769,-18.60401 5.38,-7.11602 11.1597,-13.90522 17.1957,-20.46912 5.1187,-4.85963 9.0435,-10.92029 14.5108,-15.38966 2.2648,-1.22947 3.5366,-0.85641 5.5073,0.51138 0.505,0.35045 2.0425,1.36396 1.5059,1.06423 -23.9659,-13.38633 -29.8045,-20.4481 -22.5761,-12.10058 3.8715,6.19682 7.3831,12.60116 11.0793,18.90555 7.4158,12.73591 14.3927,25.71292 21.6428,38.5429 5.3773,9.66912 10.1201,19.67723 15.323,29.43311 2.1012,3.63448 1.0979,1.96083 2.9892,5.03347 0,0 26.9894,11.75586 26.9894,11.75586 l 0,0 c -2.2582,-2.93557 -1.1074,-1.3032 -3.3814,-4.94648 -3.9162,-6.2907 -0.3473,-0.27153 -4.0884,-7.57984 -3.8365,-7.49447 -8.3116,-14.6428 -12.049,-22.18927 -7.1824,-12.69163 -14.0793,-25.52519 -21.1122,-38.30056 -3.397,-6.28919 -6.8974,-12.49951 -10.3518,-18.74964 -5.3644,-11.37887 -0.6146,-2.26248 -27.5461,-18.30732 -2.9489,-1.75683 -6.3403,-0.29948 -8.8787,1.40022 -5.2653,4.84133 -9.2471,10.87875 -14.3847,15.86655 -5.998,6.65834 -11.7779,13.49427 -17.3249,20.53426 -5.1043,6.0808 -9.8984,12.36864 -14.5735,18.78169 -4.1915,5.73273 -7.6856,11.85799 -11.1233,18.06357 0,0 25.9826,14.30976 25.9826,14.30976 z"
         inkscape:connector-curvature="0" />
    </g>
    <path
       inkscape:connector-curvature="0"
       id="path3355"
       d="m -767.1473,682.29795 60,0 0,66 -60,0 z"
       style="fill:#800000;fill-opacity:1;stroke:none" />
    <path
       style="fill:#800000;fill-opacity:1;stroke:none"
       d="m -687.1473,682.29795 60,0 0,66 -60,0 z"
       id="path3357"
       inkscape:connector-curvature="0" />
    <path
       inkscape:connector-curvature="0"
       id="path3359"
       d="m -367.1473,682.29795 60,0 0,66 -60,0 z"
       style="fill:#800000;fill-opacity:1;stroke:none" />
    <g
       id="g3361"
       transform="matrix(0,0.53043214,-0.53043214,0,-156.31027,1029.8194)">
      <path
         inkscape:connector-curvature="0"
         d="m -488.9944,223.32217 c -3.2638,5.60009 -4.4877,11.70541 -4.9972,18.09126 -0.3693,14.23874 0.094,28.48069 0.7973,42.70139 0.3519,18.3709 1.6221,36.64793 3.2998,54.93734 1.474,15.41191 2.0764,30.88986 2.4497,46.36207 0.3253,11.07772 0.3324,22.16208 0.3115,33.24363 -0.2921,8.91375 0.4838,17.77533 1.2807,26.64007 0.241,3.14262 0.4346,6.28729 0.7034,9.42763 0,0 -26.1508,13.50163 -26.1508,13.50163 l 0,0 c -0.072,-3.16469 -0.1914,-6.32745 -0.4308,-9.48477 -0.6179,-8.99183 -1.4859,-17.97922 -1.0778,-27.00492 0,-11.11804 0.043,-22.23597 0.025,-33.35404 -0.1951,-15.48064 -0.6156,-30.96311 -1.9614,-46.39372 -1.5403,-18.30968 -2.8904,-36.60142 -3.4419,-54.97311 -0.8062,-14.17931 -1.4379,-28.36272 -1.7184,-42.56383 0.1425,-6.30161 0.6343,-13.11819 3.9424,-18.65826 0,0 26.9682,-12.47237 26.9682,-12.47237 z"
         id="path3363"
         style="fill:#f9f9f9;fill-opacity:1;stroke:none" />
      <path
         inkscape:connector-curvature="0"
         d="m -542.5302,394.64271 c 2.7293,6.22978 6.2312,12.04882 10.1872,17.56607 4.6575,6.34214 9.442,12.55467 14.4769,18.60401 5.38,7.11602 11.1597,13.90522 17.1957,20.46912 5.1187,4.85963 9.0435,10.92029 14.5108,15.38966 2.2648,1.22947 3.5366,0.85641 5.5073,-0.51138 0.505,-0.35045 2.0425,-1.36396 1.5059,-1.06423 -23.9659,13.38633 -29.8045,20.4481 -22.5761,12.10058 3.8715,-6.19682 7.3831,-12.60116 11.0793,-18.90555 7.4158,-12.73591 14.3927,-25.71292 21.6428,-38.5429 5.3773,-9.66912 10.1201,-19.67723 15.323,-29.43311 2.1012,-3.63448 1.0979,-1.96083 2.9892,-5.03347 0,0 26.9894,-11.75586 26.9894,-11.75586 l 0,0 c -2.2582,2.93557 -1.1074,1.3032 -3.3814,4.94648 -3.9162,6.2907 -0.3473,0.27153 -4.0884,7.57984 -3.8365,7.49447 -8.3116,14.6428 -12.049,22.18927 -7.1824,12.69163 -14.0793,25.52519 -21.1122,38.30056 -3.397,6.28919 -6.8974,12.49951 -10.3518,18.74964 -5.3644,11.37887 -0.6146,2.26248 -27.5461,18.30732 -2.9489,1.75683 -6.3403,0.29948 -8.8787,-1.40022 -5.2653,-4.84133 -9.2471,-10.87875 -14.3847,-15.86655 -5.998,-6.65834 -11.7779,-13.49427 -17.3249,-20.53426 -5.1043,-6.0808 -9.8984,-12.36864 -14.5735,-18.78169 -4.1915,-5.73273 -7.6856,-11.85799 -11.1233,-18.06357 0,0 25.9826,-14.30976 25.9826,-14.30976 z"
         id="path3365"
         style="fill:#f9f9f9;fill-opacity:1;stroke:none" />
      <path
         style="fill:#f9f9f9;fill-opacity:1;stroke:none"
         id="path3367"
         d="m -542.5302,283.27825 c 2.7293,-6.22978 6.2312,-12.04882 10.1872,-17.56607 4.6575,-6.34214 9.442,-12.55467 14.4769,-18.60401 5.38,-7.11602 11.1597,-13.90522 17.1957,-20.46912 5.1187,-4.85963 9.0435,-10.92029 14.5108,-15.38966 2.2648,-1.22947 3.5366,-0.85641 5.5073,0.51138 0.505,0.35045 2.0425,1.36396 1.5059,1.06423 -23.9659,-13.38633 -29.8045,-20.4481 -22.5761,-12.10058 3.8715,6.19682 7.3831,12.60116 11.0793,18.90555 7.4158,12.73591 14.3927,25.71292 21.6428,38.5429 5.3773,9.66912 10.1201,19.67723 15.323,29.43311 2.1012,3.63448 1.0979,1.96083 2.9892,5.03347 0,0 26.9894,11.75586 26.9894,11.75586 l 0,0 c -2.2582,-2.93557 -1.1074,-1.3032 -3.3814,-4.94648 -3.9162,-6.2907 -0.3473,-0.27153 -4.0884,-7.57984 -3.8365,-7.49447 -8.3116,-14.6428 -12.049,-22.18927 -7.1824,-12.69163 -14.0793,-25.52519 -21.1122,-38.30056 -3.397,-6.28919 -6.8974,-12.49951 -10.3518,-18.74964 -5.3644,-11.37887 -0.6146,-2.26248 -27.5461,-18.30732 -2.9489,-1.75683 -6.3403,-0.29948 -8.8787,1.40022 -5.2653,4.84133 -9.2471,10.87875 -14.3847,15.86655 -5.998,6.65834 -11.7779,13.49427 -17.3249,20.53426 -5.1043,6.0808 -9.8984,12.36864 -14.5735,18.78169 -4.1915,5.73273 -7.6856,11.85799 -11.1233,18.06357 0,0 25.9826,14.30976 25.9826,14.30976 z"
         inkscape:connector-curvature="0" />
    </g>
    <path
       inkscape:connector-curvature="0"
       id="magnet_3381"
       d="m -725.1473,1036.298 38.57143,0 0,36 -38.57143,0 z"
       style="fill:#ff6600;fill-opacity:1;stroke:none" />
    <text
       xml:space="preserve"
       style="font-style:normal;font-variant:normal;font-weight:normal;font-stretch:normal;line-height:0%;font-family:Arial;-inkscape-font-specification:Arial;letter-spacing:0px;word-spacing:0px;fill:#ffffff;fill-opacity:1;stroke:#ffffff"
       x="-1194.5312"
       y="895.4696"
       id="text4508"><tspan
         sodipodi:role="line"
         x="-1194.5312"
         y="895.4696"
         id="tspan4514"
         style="font-size:40px;line-height:1.25">não é preciso fazer nada para passar este stage</tspan><tspan
         sodipodi:role="line"
         x="-1194.5312"
         y="945.4696"
         id="tspan3491"
         style="font-size:40px;line-height:1.25">os objectos são repelidos</tspan></text>
    <path
       style="fill:#ff6600;fill-opacity:1;stroke:none"
       d="m -687.1473,996.298 38.57143,0 0,36 -38.57143,0 z"
       id="magnet_3473"
       inkscape:connector-curvature="0" />
    <path
       inkscape:connector-curvature="0"
       id="magnet_3475"
       d="m -645.1473,1036.298 38.57143,0 0,36 -38.57143,0 z"
       style="fill:#ff6600;fill-opacity:1;stroke:none" />
    <path
       style="fill:#ff6600;fill-opacity:1;stroke:none"
       d="m -607.1473,996.298 38.57143,0 0,36 -38.57143,0 z"
       id="magnet_3477"
       inkscape:connector-curvature="0" />
    <path
       inkscape:connector-curvature="0"
       id="magnet_3479"
       d="m -685.1473,1076.298 38.57143,0 0,36 -38.57143,0 z"
       style="fill:#ff6600;fill-opacity:1;stroke:none" />
    <path
       style="fill:#ff6600;fill-opacity:1;stroke:none"
       d="m -605.1473,1076.298 38.57143,0 0,36 -38.57143,0 z"
       id="magnet_3481"
       inkscape:connector-curvature="0" />
    <path
       inkscape:connector-curvature="0"
       id="magnet_3483"
       d="m -565.1473,1034.298 38.57143,0 0,36 -38.57143,0 z"
       style="fill:#ff6600;fill-opacity:1;stroke:none" />
    <path
       style="fill:#ff6600;fill-opacity:1;stroke:none"
       d="m -769.1473,996.298 38.57143,0 0,36 -38.57143,0 z"
       id="magnet_3485"
       inkscape:connector-curvature="0" />
    <path
       inkscape:connector-curvature="0"
       id="magnet_3487"
       d="m -523.1473,996.298 38.57143,0 0,36 -38.57143,0 z"
       style="fill:#ff6600;fill-opacity:1;stroke:none" />
    <path
       style="fill:#ff6600;fill-opacity:1;stroke:none"
       d="m -645.1473,1118.298 38.57143,0 0,36 -38.57143,0 z"
       id="magnet_3489"
       inkscape:connector-curvature="0" />
    <text
       id="text3501"
       y="846.44861"
       x="-465.33008"
       style="font-style:normal;font-variant:normal;font-weight:normal;font-stretch:normal;line-height:0%;font-family:Arial;-inkscape-font-specification:Arial;text-align:start;letter-spacing:0px;word-spacing:0px;text-anchor:start;fill:#f2f2f2;fill-opacity:1;stroke:none"
       xml:space="preserve"><tspan
         id="tspan3503"
         y="846.44861"
         x="-465.33008"
         sodipodi:role="line"
         style="font-size:56px;line-height:1.25">&gt;&gt; WTF moment!!</tspan></text>
    <path
       inkscape:connector-curvature="0"
       id="magnet_3113"
       d="m -727.1473,956.298 38.57143,0 0,36 -38.57143,0 z"
       style="fill:#ff6600;fill-opacity:1;stroke:none" />
    <path
       inkscape:connector-curvature="0"
       id="magnet_3115"
       d="m -647.1473,956.298 38.57143,0 0,36 -38.57143,0 z"
       style="fill:#ff6600;fill-opacity:1;stroke:none" />
    <path
       inkscape:connector-curvature="0"
       id="magnet_3117"
       d="m -809.1473,956.298 38.57143,0 0,36 -38.57143,0 z"
       style="fill:#ff6600;fill-opacity:1;stroke:none" />
    <path
       style="fill:#ff6600;fill-opacity:1;stroke:none"
       d="m -563.1473,956.298 38.57143,0 0,36 -38.57143,0 z"
       id="magnet_3119"
       inkscape:connector-curvature="0" />
    <path
       inkscape:connector-curvature="0"
       id="magnet_3121"
       d="m -483.1473,956.298 38.57143,0 0,36 -38.57143,0 z"
       style="fill:#ff6600;fill-opacity:1;stroke:none" />
  </g>
</svg>
